<?xml version="1.0" encoding="utf-8"?>
<!-- Generated by IcoMoon.io -->
<!DOCTYPE svg PUBLIC "-//W3C//DTD SVG 1.1//EN" "http://www.w3.org/Graphics/SVG/1.1/DTD/svg11.dtd">
<svg version="1.1" xmlns="http://www.w3.org/2000/svg" xmlns:xlink="http://www.w3.org/1999/xlink" width="50" height="50" viewBox="0 0 50 50">
<g>
	<line stroke-width="1" x1="" y1="" x2="" y2="" stroke="#449FDB" opacity=""></line>
</g>
	<path d="M25 0c-13.611 0-24.681 10.877-24.993 24.413 0.289-11.81 9.269-21.288 20.305-21.288 11.218 0 20.313 9.794 20.313 21.875 0 2.589 2.099 4.688 4.688 4.688s4.688-2.099 4.688-4.688c0-13.807-11.193-25-25-25zM25 50c13.611 0 24.681-10.877 24.993-24.413-0.289 11.81-9.269 21.288-20.305 21.288-11.218 0-20.313-9.794-20.313-21.875 0-2.589-2.099-4.688-4.688-4.688s-4.688 2.099-4.688 4.688c0 13.807 11.193 25 25 25z" fill="#000000"></path>
</svg>
